# xmcd
#
# Track frame offsets:
# 150
# 20315
# 39490
# 56215
# 79950
# 94080
# 112215
# 130370
# 151955
# 168040
# 187777
# 202927
#
# Disc length: 2957 seconds
#
# Revision: 0
# Processed by: cddbd v1.5.1PL2 Copyright (c) Steve Scherf et al.
# Submitted via: Axialis_AX_CDPlayer 2.6
#
DISCID=960b8b0c
DTITLE=Candellight - Piano By Candlelight - The Music Of Frank Sinatra
DYEAR=1900
DGENRE=
TTITLE0=All The Way
TTITLE1=I've Got You Under My Skin
TTITLE2=Nancy (With The laughing Face)
TTITLE3=In The Wee Small Hours Of The Morning - One For My Baby
TTITLE4=New York, New York
TTITLE5=Someone To Watch Over Me
TTITLE6=Night And Day
TTITLE7=It Was A Very Good Year - Three Coins In The Fountain
TTITLE8=Summer Wind
TTITLE9=Strangers In The Night - Something Stupid
TTITLE10=That Old Black Magic
TTITLE11=My Way
EXTD=
EXTT0=
EXTT1=
EXTT2=
EXTT3=
EXTT4=
EXTT5=
EXTT6=
EXTT7=
EXTT8=
EXTT9=
EXTT10=
EXTT11=
PLAYORDER=
